<?xml version="1.0" standalone="no"?>
<!DOCTYPE svg PUBLIC "-//W3C//DTD SVG 20010904//EN"
 "http://www.w3.org/TR/2001/REC-SVG-20010904/DTD/svg10.dtd">
<svg version="1.0" xmlns="http://www.w3.org/2000/svg"
 width="900.000000pt" height="900.000000pt" viewBox="0 0 900.000000 900.000000"
 preserveAspectRatio="xMidYMid meet">

<g transform="translate(0.000000,900.000000) scale(0.100000,-0.100000)"
fill="#000000" stroke="none">
<path d="M4398 5522 c-54 -7 -77 -86 -39 -133 15 -19 28 -24 65 -23 61 1 86
24 86 79 0 62 -37 87 -112 77z"/>
<path d="M6470 5072 l0 -453 73 3 72 3 3 128 3 127 48 0 49 0 77 -130 77 -130
79 0 c44 0 79 4 79 8 0 4 -40 77 -90 161 l-90 153 20 28 c20 28 124 233 141
278 8 22 7 22 -69 22 l-78 0 -56 -113 c-31 -62 -65 -120 -75 -130 -11 -9 -40
-20 -66 -23 l-47 -7 -2 264 -3 264 -72 0 -73 0 0 -453z"/>
<path d="M4080 5397 l0 -122 -109 3 c-102 4 -114 2 -168 -22 -75 -35 -105 -64
-140 -139 -26 -57 -28 -71 -28 -182 0 -114 2 -123 31 -186 24 -50 43 -74 77
-97 102 -71 230 -62 325 22 20 18 24 18 32 6 5 -8 10 -25 10 -37 0 -21 4 -23
60 -23 l60 0 0 450 0 450 -75 0 -75 0 0 -123z m-10 -252 c6 -4 10 -71 10 -167
l0 -160 -30 -28 c-42 -39 -110 -64 -154 -56 -46 9 -91 53 -105 102 -14 51 -14
157 0 205 13 43 60 91 104 108 30 11 156 8 175 -4z"/>
<path d="M2016 5478 c-3 -7 -7 -76 -10 -154 -8 -195 -25 -555 -30 -637 l-5
-68 77 3 77 3 8 125 c4 69 11 213 15 320 l7 195 19 -50 c10 -27 59 -128 108
-222 l90 -173 58 0 57 0 86 163 c47 89 96 189 109 222 l23 60 7 -210 c4 -115
11 -259 15 -320 l8 -110 74 -3 74 -3 -6 173 c-9 215 -26 552 -33 636 l-6 63
-86 -3 -87 -3 -115 -232 c-63 -127 -117 -232 -120 -232 -3 0 -57 104 -122 232
l-116 232 -86 3 c-64 2 -87 -1 -90 -10z"/>
<path d="M5150 5425 l0 -65 135 0 135 0 0 -370 0 -370 80 0 80 0 0 370 0 370
135 0 135 0 0 65 0 65 -350 0 -350 0 0 -65z"/>
<path d="M3202 5278 c-102 -17 -188 -93 -218 -193 -17 -59 -20 -216 -4 -273
29 -110 120 -184 247 -202 76 -10 201 0 271 23 37 12 37 12 40 74 l3 61 -58
-15 c-32 -9 -101 -17 -153 -17 -78 -1 -101 3 -130 19 -37 22 -80 92 -80 132
l0 23 215 0 215 0 2 43 c6 123 -18 210 -70 260 -60 57 -173 83 -280 65z m128
-124 c44 -18 64 -46 75 -107 l7 -37 -146 0 c-161 0 -159 -1 -132 64 34 80 113
113 196 80z"/>
<path d="M4698 5263 l-58 -15 0 -65 c0 -57 2 -64 18 -59 128 37 240 41 293 10
43 -25 59 -56 59 -115 l0 -46 -92 5 c-103 5 -196 -13 -254 -49 -60 -36 -90
-136 -63 -206 45 -121 237 -156 373 -69 l54 35 6 -35 7 -34 60 0 60 0 -3 258
c-3 227 -5 261 -21 291 -26 46 -64 77 -116 96 -58 20 -244 19 -323 -2z m285
-382 c27 -1 28 -2 25 -53 -3 -51 -4 -53 -52 -82 -65 -41 -151 -44 -190 -7 -31
29 -34 69 -8 101 22 27 103 50 157 45 22 -2 53 -4 68 -4z"/>
<path d="M5950 5262 c-62 -24 -123 -87 -150 -158 -19 -48 -24 -79 -24 -164 -1
-97 1 -110 30 -171 45 -95 110 -140 228 -159 73 -11 203 0 272 24 l39 13 3 63
c3 57 1 62 -15 55 -10 -3 -54 -14 -98 -22 -177 -34 -287 12 -302 125 l-6 42
217 0 216 0 0 93 c0 139 -39 210 -140 256 -58 27 -203 28 -270 3z m184 -106
c47 -19 76 -61 76 -107 l0 -39 -140 0 c-158 0 -156 -1 -121 77 19 41 40 58 90
74 39 11 58 10 95 -5z"/>
<path d="M4350 4945 l0 -325 75 0 75 0 0 325 0 325 -75 0 -75 0 0 -325z"/>
<path d="M6320 3955 c0 -506 -7 -475 100 -475 l60 0 0 234 0 233 38 26 c82 57
153 63 204 18 l33 -29 5 -227 c6 -263 3 -255 103 -255 l59 0 -4 248 c-3 224
-5 251 -24 292 -25 55 -81 105 -131 119 -81 23 -189 6 -251 -38 -17 -11 -32
-21 -35 -21 -2 0 -2 51 1 114 7 175 -3 196 -99 196 l-59 0 0 -435z"/>
<path d="M1960 3946 c0 -393 1 -404 21 -430 18 -23 28 -26 80 -26 l59 0 0 155
0 155 98 0 98 0 77 -155 78 -155 84 0 c47 0 85 3 85 6 0 6 -107 211 -147 282
l-24 42 33 18 c51 26 102 84 116 129 15 50 16 175 1 228 -7 23 -28 57 -53 81
-65 66 -107 74 -378 74 l-228 0 0 -404z m457 258 c45 -33 65 -81 59 -141 -10
-110 -50 -133 -231 -133 l-125 0 0 151 0 151 134 -4 c117 -3 138 -6 163 -24z"/>
<path d="M2929 4137 c-133 -30 -207 -131 -217 -296 -6 -107 9 -180 50 -243 71
-112 233 -149 446 -103 l72 16 0 60 c0 32 -3 59 -7 59 -5 -1 -35 -7 -68 -15
-76 -19 -206 -19 -248 -1 -43 18 -73 53 -86 101 -6 22 -11 43 -11 48 0 4 95 7
210 7 241 0 224 -8 224 100 1 120 -54 216 -144 254 -52 21 -156 27 -221 13z
m150 -120 c35 -18 60 -56 67 -104 l7 -43 -140 0 c-77 0 -142 2 -145 5 -3 3 -1
24 4 45 11 41 48 86 83 101 30 12 97 10 124 -4z"/>
<path d="M3585 4144 c-139 -19 -205 -80 -205 -190 0 -101 51 -150 206 -195
110 -32 141 -49 150 -85 9 -36 -23 -65 -83 -75 -49 -7 -171 3 -231 20 -29 9
-32 8 -33 -12 0 -12 -3 -41 -5 -64 l-5 -41 72 -12 c105 -18 254 -16 309 4 82
30 121 85 122 170 1 111 -56 165 -219 210 -140 39 -179 84 -110 126 39 24 164
27 245 7 28 -8 54 -12 57 -9 3 3 5 31 5 63 l0 58 -52 10 c-64 13 -182 21 -223
15z"/>
<path d="M4190 4140 c-65 -12 -93 -24 -135 -61 -78 -69 -117 -206 -96 -344 13
-91 36 -139 89 -187 63 -57 122 -71 271 -65 69 3 142 10 163 16 36 11 36 12
40 71 1 33 3 60 3 60 0 0 -35 -7 -78 -15 -173 -33 -278 -12 -316 64 -12 22
-21 52 -21 66 l0 25 209 0 210 0 6 55 c12 95 -9 183 -59 242 -49 58 -182 92
-286 73z m162 -147 c22 -22 32 -43 35 -77 l6 -46 -143 0 -143 0 6 36 c13 81
72 127 155 121 43 -3 59 -10 84 -34z"/>
<path d="M4800 4141 c-30 -5 -74 -14 -97 -20 l-43 -12 0 -58 c0 -32 3 -60 6
-64 3 -3 25 1 47 10 59 21 185 28 230 14 55 -19 87 -62 87 -121 l0 -48 -118 0
c-109 0 -124 -2 -181 -27 -70 -32 -96 -59 -112 -117 -22 -83 13 -158 94 -199
31 -16 58 -21 119 -20 84 1 130 15 185 57 31 23 33 24 33 5 0 -44 10 -51 72
-51 l60 0 -4 253 -3 252 -27 47 c-38 64 -104 95 -213 102 -44 2 -105 1 -135
-3z m228 -440 c4 -54 -20 -83 -86 -105 -56 -20 -93 -20 -136 -2 -65 27 -55
110 17 142 21 9 61 13 117 11 l85 -2 3 -44z"/>
<path d="M5933 4140 c-146 -31 -233 -154 -233 -330 0 -209 112 -329 309 -332
80 -1 170 9 187 20 7 4 9 31 6 68 l-4 62 -37 -11 c-57 -16 -181 -13 -216 5
-63 33 -95 96 -95 184 0 158 86 230 245 206 39 -5 78 -13 88 -17 15 -6 17 0
19 44 1 28 2 59 2 68 1 12 -10 19 -34 24 -62 13 -194 18 -237 9z"/>
<path d="M5535 4116 c-27 -13 -59 -33 -69 -45 -27 -30 -35 -27 -42 19 l-7 40
-58 0 -59 0 0 -294 c0 -282 1 -294 21 -320 18 -22 28 -26 75 -26 l54 0 0 213
0 213 28 27 c31 30 118 67 156 67 23 0 24 4 28 65 l3 65 -40 0 c-22 0 -62 -11
-90 -24z"/>
</g>
</svg>
