<?xml version="1.0" standalone="no"?>
<!DOCTYPE svg PUBLIC "-//W3C//DTD SVG 20010904//EN"
 "http://www.w3.org/TR/2001/REC-SVG-20010904/DTD/svg10.dtd">
<svg version="1.0" xmlns="http://www.w3.org/2000/svg"
 width="3712.000000pt" height="2090.000000pt" viewBox="0 0 3712.000000 2090.000000"
 preserveAspectRatio="xMidYMid meet">

<g transform="translate(0.000000,2090.000000) scale(0.100000,-0.100000)"
fill="#000000" stroke="none">
<path d="M12812 19878 l3 -243 27 -3 28 -3 2 218 3 218 32 3 33 3 2 -218 3
-218 27 -3 28 -3 2 218 3 218 70 0 70 0 3 -217 2 -218 745 0 745 0 0 235 0
235 -740 0 c-487 0 -740 3 -740 10 0 6 -65 10 -175 10 l-175 0 2 -242z"/>
<path d="M12538 19583 l-118 -4 0 -469 0 -470 615 0 615 0 0 215 0 215 70 0
70 0 0 -215 0 -215 35 0 35 0 0 215 0 215 30 0 30 0 0 -216 0 -215 33 3 32 3
3 213 2 212 75 0 75 0 0 -215 0 -215 495 0 495 0 0 475 0 475 -495 0 -495 0 0
-225 0 -225 -75 0 -75 0 -2 223 -3 222 -32 3 -33 3 0 -225 0 -226 -30 0 -30 0
-2 223 -3 222 -32 3 -33 3 0 -225 0 -226 -70 0 -70 0 0 225 0 225 -497 -2
c-274 -1 -551 -4 -615 -5z"/>
<path d="M12418 18593 l-248 -3 0 -464 0 -463 362 -6 c199 -4 475 -7 615 -7
l253 0 0 475 0 475 -367 -2 c-203 -2 -479 -4 -615 -5z"/>
<path d="M14140 18125 l0 -475 495 0 495 0 0 220 0 220 245 0 245 0 0 25 0 25
-245 0 -245 0 0 230 0 230 -495 0 -495 0 0 -475z"/>
<path d="M18078 18373 l-3 -228 -168 -3 -167 -2 2 -243 3 -242 27 -3 28 -3 2
218 3 218 32 3 33 3 2 -218 3 -218 27 -3 28 -3 2 218 3 218 70 0 70 0 3 -217
2 -218 990 0 990 0 0 475 0 475 -990 0 -990 0 -2 -227z"/>
<path d="M7770 17590 c0 -13 -7 -20 -20 -20 -18 0 -20 -7 -20 -60 0 -53 2 -60
20 -60 13 0 20 -7 20 -20 0 -13 -7 -20 -20 -20 -18 0 -20 -7 -20 -60 0 -53 2
-60 20 -60 13 0 20 -7 20 -20 0 -13 -7 -20 -20 -20 -18 0 -20 -7 -20 -60 0
-53 2 -60 20 -60 11 0 20 -7 20 -15 0 -8 -9 -15 -20 -15 -18 0 -20 -7 -20 -60
0 -53 2 -60 20 -60 13 0 20 -7 20 -20 0 -13 -7 -20 -20 -20 -18 0 -20 -7 -20
-60 0 -53 2 -60 20 -60 13 0 20 -7 20 -20 0 -13 -7 -20 -20 -20 -18 0 -20 -7
-20 -60 l0 -60 495 0 495 0 0 230 0 230 245 0 245 0 0 -230 0 -230 495 0 495
0 0 21 c0 12 -8 23 -20 26 -11 3 -20 12 -20 19 0 8 9 14 20 14 18 0 20 7 20
60 0 53 -2 60 -20 60 -13 0 -20 7 -20 20 0 13 7 20 20 20 18 0 20 7 20 60 0
53 -2 60 -20 60 -11 0 -20 7 -20 15 0 8 9 15 20 15 18 0 20 7 20 61 0 52 -3
62 -20 66 -11 3 -20 12 -20 19 0 8 9 14 20 14 18 0 20 7 20 60 0 53 -2 60 -20
60 -13 0 -20 7 -20 20 0 13 7 20 20 20 18 0 20 7 20 60 0 53 -2 60 -20 60 -11
0 -20 7 -20 15 0 8 9 15 20 15 17 0 20 7 20 45 0 39 -3 45 -21 45 -12 0 -23
-8 -26 -20 -3 -11 -11 -20 -18 -20 -7 0 -15 9 -18 20 -3 12 -14 20 -26 20 -14
0 -21 -6 -21 -20 0 -13 -7 -20 -20 -20 -13 0 -20 7 -20 20 0 13 -7 20 -20 20
-13 0 -20 -7 -20 -20 0 -13 -7 -20 -20 -20 -13 0 -20 7 -20 20 0 13 -7 20 -20
20 -13 0 -20 -7 -20 -20 0 -13 -7 -20 -20 -20 -13 0 -20 7 -20 20 0 14 -7 20
-21 20 -12 0 -23 -8 -26 -20 -3 -11 -11 -20 -18 -20 -7 0 -15 9 -18 20 -3 12
-14 20 -26 20 -14 0 -21 -6 -21 -20 0 -11 -7 -20 -15 -20 -8 0 -15 9 -15 20 0
20 -7 20 -761 20 -752 0 -761 0 -766 -20 -3 -11 -11 -20 -18 -20 -7 0 -15 9
-18 20 -3 12 -14 20 -26 20 -14 0 -21 -6 -21 -20 0 -13 -7 -20 -20 -20 -13 0
-20 7 -20 20 0 13 -7 20 -20 20 -13 0 -20 -7 -20 -20 0 -13 -7 -20 -20 -20
-13 0 -20 7 -20 20 0 13 -7 20 -20 20 -13 0 -20 -7 -20 -20 0 -13 -7 -20 -20
-20 -13 0 -20 7 -20 20 0 14 -7 20 -21 20 -12 0 -23 -8 -26 -20 -3 -11 -14
-20 -24 -20 -12 0 -19 7 -19 20 0 13 -7 20 -20 20 -13 0 -20 -7 -20 -20z m40
-85 c0 -8 -9 -15 -20 -15 -11 0 -20 7 -20 15 0 8 9 15 20 15 11 0 20 -7 20
-15z m80 0 c0 -8 -7 -15 -15 -15 -8 0 -15 7 -15 15 0 8 7 15 15 15 8 0 15 -7
15 -15z m90 0 c0 -8 -9 -15 -20 -15 -11 0 -20 7 -20 15 0 8 9 15 20 15 11 0
20 -7 20 -15z m80 0 c0 -8 -9 -15 -20 -15 -11 0 -20 7 -20 15 0 8 9 15 20 15
11 0 20 -7 20 -15z m80 0 c0 -8 -7 -15 -15 -15 -8 0 -15 7 -15 15 0 8 7 15 15
15 8 0 15 -7 15 -15z m80 0 c0 -8 -7 -15 -15 -15 -8 0 -15 7 -15 15 0 8 7 15
15 15 8 0 15 -7 15 -15z m1560 0 c0 -8 -9 -15 -20 -15 -11 0 -20 7 -20 15 0 8
9 15 20 15 11 0 20 -7 20 -15z m80 0 c0 -8 -7 -15 -15 -15 -8 0 -15 7 -15 15
0 8 7 15 15 15 8 0 15 -7 15 -15z m90 0 c0 -8 -9 -15 -20 -15 -11 0 -20 7 -20
15 0 8 9 15 20 15 11 0 20 -7 20 -15z m80 0 c0 -8 -9 -15 -20 -15 -11 0 -20 7
-20 15 0 8 9 15 20 15 11 0 20 -7 20 -15z m80 0 c0 -8 -7 -15 -15 -15 -8 0
-15 7 -15 15 0 8 7 15 15 15 8 0 15 -7 15 -15z m-2260 -75 c0 -21 -24 -28 -35
-10 -8 14 3 30 21 30 8 0 14 -9 14 -20z m85 0 c0 -8 -8 -16 -17 -18 -13 -2
-18 3 -18 18 0 15 5 20 18 18 9 -2 17 -10 17 -18z m85 0 c0 -13 -7 -20 -20
-20 -13 0 -20 7 -20 20 0 13 7 20 20 20 13 0 20 -7 20 -20z m80 0 c0 -13 -7
-20 -20 -20 -19 0 -27 20 -13 33 13 14 33 6 33 -13z m80 0 c0 -11 -7 -20 -15
-20 -8 0 -15 9 -15 20 0 11 7 20 15 20 8 0 15 -9 15 -20z m1560 0 c0 -11 -7
-20 -15 -20 -8 0 -15 9 -15 20 0 11 7 20 15 20 8 0 15 -9 15 -20z m80 0 c0
-11 -7 -20 -15 -20 -8 0 -15 9 -15 20 0 11 7 20 15 20 8 0 15 -9 15 -20z m85
0 c0 -8 -8 -16 -17 -18 -13 -2 -18 3 -18 18 0 15 5 20 18 18 9 -2 17 -10 17
-18z m83 -3 c2 -12 -3 -17 -17 -17 -12 0 -21 6 -21 13 0 31 32 34 38 4z m82 3
c0 -21 -24 -28 -35 -10 -8 14 3 30 21 30 8 0 14 -9 14 -20z m80 0 c0 -11 -7
-20 -15 -20 -8 0 -15 9 -15 20 0 11 7 20 15 20 8 0 15 -9 15 -20z m-2340 -80
c0 -21 -24 -28 -35 -10 -8 14 3 30 21 30 8 0 14 -9 14 -20z m80 0 c0 -11 -7
-20 -15 -20 -8 0 -15 9 -15 20 0 11 7 20 15 20 8 0 15 -9 15 -20z m88 3 c-5
-26 -38 -29 -38 -4 0 15 6 21 21 21 14 0 19 -5 17 -17z m82 -3 c0 -13 -7 -20
-20 -20 -19 0 -27 20 -13 33 13 14 33 6 33 -13z m80 0 c0 -11 -7 -20 -15 -20
-8 0 -15 9 -15 20 0 11 7 20 15 20 8 0 15 -9 15 -20z m80 0 c0 -11 -7 -20 -15
-20 -8 0 -15 9 -15 20 0 11 7 20 15 20 8 0 15 -9 15 -20z m1560 0 c0 -21 -24
-28 -35 -10 -8 14 3 30 21 30 8 0 14 -9 14 -20z m80 0 c0 -11 -7 -20 -15 -20
-8 0 -15 9 -15 20 0 11 7 20 15 20 8 0 15 -9 15 -20z m88 3 c-5 -26 -38 -29
-38 -4 0 15 6 21 21 21 14 0 19 -5 17 -17z m82 -3 c0 -13 -7 -20 -20 -20 -19
0 -27 20 -13 33 13 14 33 6 33 -13z m80 0 c0 -11 -7 -20 -15 -20 -8 0 -15 9
-15 20 0 11 7 20 15 20 8 0 15 -9 15 -20z m-2260 -80 c0 -11 -6 -20 -14 -20
-18 0 -29 16 -21 30 11 18 35 11 35 -10z m85 0 c0 -8 -8 -16 -17 -18 -13 -2
-18 3 -18 18 0 15 5 20 18 18 9 -2 17 -10 17 -18z m85 -1 c0 -25 -33 -22 -38
4 -2 12 3 17 17 17 15 0 21 -6 21 -21z m80 0 c0 -25 -33 -22 -38 4 -2 12 3 17
17 17 15 0 21 -6 21 -21z m80 1 c0 -11 -7 -20 -15 -20 -8 0 -15 9 -15 20 0 11
7 20 15 20 8 0 15 -9 15 -20z m1560 0 c0 -11 -7 -20 -15 -20 -8 0 -15 9 -15
20 0 11 7 20 15 20 8 0 15 -9 15 -20z m80 0 c0 -11 -7 -20 -15 -20 -8 0 -15 9
-15 20 0 11 7 20 15 20 8 0 15 -9 15 -20z m85 0 c0 -8 -8 -16 -17 -18 -13 -2
-18 3 -18 18 0 15 5 20 18 18 9 -2 17 -10 17 -18z m83 3 c-2 -10 -10 -18 -18
-18 -8 0 -16 8 -18 18 -2 12 3 17 18 17 15 0 20 -5 18 -17z m82 -3 c0 -11 -6
-20 -14 -20 -18 0 -29 16 -21 30 11 18 35 11 35 -10z m80 0 c0 -11 -7 -20 -15
-20 -8 0 -15 9 -15 20 0 11 7 20 15 20 8 0 15 -9 15 -20z m-2340 -75 c0 -8 -9
-15 -20 -15 -11 0 -20 7 -20 15 0 8 9 15 20 15 11 0 20 -7 20 -15z m80 0 c0
-8 -7 -15 -15 -15 -8 0 -15 7 -15 15 0 8 7 15 15 15 8 0 15 -7 15 -15z m90 0
c0 -8 -9 -15 -20 -15 -11 0 -20 7 -20 15 0 8 9 15 20 15 11 0 20 -7 20 -15z
m80 0 c0 -8 -9 -15 -20 -15 -11 0 -20 7 -20 15 0 8 9 15 20 15 11 0 20 -7 20
-15z m80 0 c0 -8 -7 -15 -15 -15 -8 0 -15 7 -15 15 0 8 7 15 15 15 8 0 15 -7
15 -15z m80 0 c0 -8 -7 -15 -15 -15 -8 0 -15 7 -15 15 0 8 7 15 15 15 8 0 15
-7 15 -15z m1560 0 c0 -8 -9 -15 -20 -15 -11 0 -20 7 -20 15 0 8 9 15 20 15
11 0 20 -7 20 -15z m80 0 c0 -8 -7 -15 -15 -15 -8 0 -15 7 -15 15 0 8 7 15 15
15 8 0 15 -7 15 -15z m90 0 c0 -8 -9 -15 -20 -15 -11 0 -20 7 -20 15 0 8 9 15
20 15 11 0 20 -7 20 -15z m80 0 c0 -8 -9 -15 -20 -15 -11 0 -20 7 -20 15 0 8
9 15 20 15 11 0 20 -7 20 -15z m80 0 c0 -8 -7 -15 -15 -15 -8 0 -15 7 -15 15
0 8 7 15 15 15 8 0 15 -7 15 -15z m-2260 -80 c0 -8 -9 -15 -20 -15 -11 0 -20
7 -20 15 0 8 9 15 20 15 11 0 20 -7 20 -15z m90 0 c0 -8 -9 -15 -20 -15 -11 0
-20 7 -20 15 0 8 9 15 20 15 11 0 20 -7 20 -15z m80 0 c0 -8 -9 -15 -20 -15
-11 0 -20 7 -20 15 0 8 9 15 20 15 11 0 20 -7 20 -15z m80 0 c0 -8 -9 -15 -20
-15 -11 0 -20 7 -20 15 0 8 9 15 20 15 11 0 20 -7 20 -15z m80 0 c0 -8 -7 -15
-15 -15 -8 0 -15 7 -15 15 0 8 7 15 15 15 8 0 15 -7 15 -15z m1560 0 c0 -8 -7
-15 -15 -15 -8 0 -15 7 -15 15 0 8 7 15 15 15 8 0 15 -7 15 -15z m80 0 c0 -8
-7 -15 -15 -15 -8 0 -15 7 -15 15 0 8 7 15 15 15 8 0 15 -7 15 -15z m90 0 c0
-8 -9 -15 -20 -15 -11 0 -20 7 -20 15 0 8 9 15 20 15 11 0 20 -7 20 -15z m80
0 c0 -8 -9 -15 -20 -15 -11 0 -20 7 -20 15 0 8 9 15 20 15 11 0 20 -7 20 -15z
m80 0 c0 -8 -9 -15 -20 -15 -11 0 -20 7 -20 15 0 8 9 15 20 15 11 0 20 -7 20
-15z m80 0 c0 -8 -7 -15 -15 -15 -8 0 -15 7 -15 15 0 8 7 15 15 15 8 0 15 -7
15 -15z m-2340 -80 c0 -8 -9 -15 -20 -15 -11 0 -20 7 -20 15 0 8 9 15 20 15
11 0 20 -7 20 -15z m80 0 c0 -8 -7 -15 -15 -15 -8 0 -15 7 -15 15 0 8 7 15 15
15 8 0 15 -7 15 -15z m90 0 c0 -8 -9 -15 -20 -15 -11 0 -20 7 -20 15 0 8 9 15
20 15 11 0 20 -7 20 -15z m80 0 c0 -8 -9 -15 -20 -15 -11 0 -20 7 -20 15 0 8
9 15 20 15 11 0 20 -7 20 -15z m80 0 c0 -8 -7 -15 -15 -15 -8 0 -15 7 -15 15
0 8 7 15 15 15 8 0 15 -7 15 -15z m80 0 c0 -8 -7 -15 -15 -15 -8 0 -15 7 -15
15 0 8 7 15 15 15 8 0 15 -7 15 -15z m1560 0 c0 -8 -9 -15 -20 -15 -11 0 -20
7 -20 15 0 8 9 15 20 15 11 0 20 -7 20 -15z m80 0 c0 -8 -7 -15 -15 -15 -8 0
-15 7 -15 15 0 8 7 15 15 15 8 0 15 -7 15 -15z m90 0 c0 -8 -9 -15 -20 -15
-11 0 -20 7 -20 15 0 8 9 15 20 15 11 0 20 -7 20 -15z m80 0 c0 -8 -9 -15 -20
-15 -11 0 -20 7 -20 15 0 8 9 15 20 15 11 0 20 -7 20 -15z m80 0 c0 -8 -7 -15
-15 -15 -8 0 -15 7 -15 15 0 8 7 15 15 15 8 0 15 -7 15 -15z m-2260 -75 c0
-21 -24 -28 -35 -10 -8 14 3 30 21 30 8 0 14 -9 14 -20z m85 0 c0 -8 -8 -16
-17 -18 -13 -2 -18 3 -18 18 0 15 5 20 18 18 9 -2 17 -10 17 -18z m83 -3 c2
-12 -3 -17 -17 -17 -15 0 -21 6 -21 21 0 25 33 22 38 -4z m82 3 c0 -13 -7 -20
-20 -20 -19 0 -27 20 -13 33 13 14 33 6 33 -13z m80 0 c0 -11 -7 -20 -15 -20
-8 0 -15 9 -15 20 0 11 7 20 15 20 8 0 15 -9 15 -20z m1560 0 c0 -11 -7 -20
-15 -20 -8 0 -15 9 -15 20 0 11 7 20 15 20 8 0 15 -9 15 -20z m80 0 c0 -11 -7
-20 -15 -20 -8 0 -15 9 -15 20 0 11 7 20 15 20 8 0 15 -9 15 -20z m85 0 c0 -8
-8 -16 -17 -18 -13 -2 -18 3 -18 18 0 15 5 20 18 18 9 -2 17 -10 17 -18z m83
-3 c2 -12 -3 -17 -17 -17 -12 0 -21 6 -21 13 0 31 32 34 38 4z m82 3 c0 -13
-7 -20 -20 -20 -19 0 -27 20 -13 33 13 14 33 6 33 -13z m80 0 c0 -11 -7 -20
-15 -20 -8 0 -15 9 -15 20 0 11 7 20 15 20 8 0 15 -9 15 -20z m-2340 -80 c0
-13 -7 -20 -20 -20 -19 0 -27 20 -13 33 13 14 33 6 33 -13z m80 0 c0 -11 -7
-20 -15 -20 -8 0 -15 9 -15 20 0 11 7 20 15 20 8 0 15 -9 15 -20z m90 0 c0
-13 -7 -20 -20 -20 -13 0 -20 7 -20 20 0 13 7 20 20 20 13 0 20 -7 20 -20z
m80 0 c0 -13 -7 -20 -20 -20 -19 0 -27 20 -13 33 13 14 33 6 33 -13z m80 0 c0
-11 -7 -20 -15 -20 -8 0 -15 9 -15 20 0 11 7 20 15 20 8 0 15 -9 15 -20z m80
0 c0 -11 -7 -20 -15 -20 -8 0 -15 9 -15 20 0 11 7 20 15 20 8 0 15 -9 15 -20z
m1560 0 c0 -11 -6 -20 -14 -20 -18 0 -29 16 -21 30 11 18 35 11 35 -10z m80 0
c0 -11 -7 -20 -15 -20 -8 0 -15 9 -15 20 0 11 7 20 15 20 8 0 15 -9 15 -20z
m88 -3 c2 -12 -3 -17 -17 -17 -15 0 -21 6 -21 21 0 25 33 22 38 -4z m82 3 c0
-13 -7 -20 -20 -20 -19 0 -27 20 -13 33 13 14 33 6 33 -13z m80 0 c0 -11 -7
-20 -15 -20 -8 0 -15 9 -15 20 0 11 7 20 15 20 8 0 15 -9 15 -20z m-2260 -80
c0 -21 -24 -28 -35 -10 -8 14 3 30 21 30 8 0 14 -9 14 -20z m85 0 c0 -8 -8
-16 -17 -18 -13 -2 -18 3 -18 18 0 15 5 20 18 18 9 -2 17 -10 17 -18z m85 -1
c0 -25 -33 -22 -38 4 -2 12 3 17 17 17 15 0 21 -6 21 -21z m80 1 c0 -21 -24
-28 -35 -10 -8 14 3 30 21 30 8 0 14 -9 14 -20z m80 0 c0 -11 -7 -20 -15 -20
-8 0 -15 9 -15 20 0 11 7 20 15 20 8 0 15 -9 15 -20z m1560 0 c0 -11 -7 -20
-15 -20 -8 0 -15 9 -15 20 0 11 7 20 15 20 8 0 15 -9 15 -20z m80 0 c0 -11 -7
-20 -15 -20 -8 0 -15 9 -15 20 0 11 7 20 15 20 8 0 15 -9 15 -20z m85 0 c0 -8
-8 -16 -17 -18 -13 -2 -18 3 -18 18 0 15 5 20 18 18 9 -2 17 -10 17 -18z m85
-1 c0 -25 -33 -22 -38 4 -2 12 3 17 17 17 15 0 21 -6 21 -21z m80 1 c0 -21
-24 -28 -35 -10 -8 14 3 30 21 30 8 0 14 -9 14 -20z m80 0 c0 -11 -7 -20 -15
-20 -8 0 -15 9 -15 20 0 11 7 20 15 20 8 0 15 -9 15 -20z m-2340 -75 c0 -8 -9
-15 -20 -15 -11 0 -20 7 -20 15 0 8 9 15 20 15 11 0 20 -7 20 -15z m80 0 c0
-8 -7 -15 -15 -15 -8 0 -15 7 -15 15 0 8 7 15 15 15 8 0 15 -7 15 -15z m90 0
c0 -8 -9 -15 -20 -15 -11 0 -20 7 -20 15 0 8 9 15 20 15 11 0 20 -7 20 -15z
m80 0 c0 -8 -9 -15 -20 -15 -11 0 -20 7 -20 15 0 8 9 15 20 15 11 0 20 -7 20
-15z m80 0 c0 -8 -7 -15 -15 -15 -8 0 -15 7 -15 15 0 8 7 15 15 15 8 0 15 -7
15 -15z m80 0 c0 -8 -7 -15 -15 -15 -8 0 -15 7 -15 15 0 8 7 15 15 15 8 0 15
-7 15 -15z m1560 0 c0 -8 -9 -15 -20 -15 -11 0 -20 7 -20 15 0 8 9 15 20 15
11 0 20 -7 20 -15z m80 0 c0 -8 -7 -15 -15 -15 -8 0 -15 7 -15 15 0 8 7 15 15
15 8 0 15 -7 15 -15z m90 0 c0 -8 -9 -15 -20 -15 -11 0 -20 7 -20 15 0 8 9 15
20 15 11 0 20 -7 20 -15z m80 0 c0 -8 -9 -15 -20 -15 -11 0 -20 7 -20 15 0 8
9 15 20 15 11 0 20 -7 20 -15z m80 0 c0 -8 -7 -15 -15 -15 -8 0 -15 7 -15 15
0 8 7 15 15 15 8 0 15 -7 15 -15z"/>
<path d="M12170 17135 l0 -475 495 0 495 0 0 215 0 215 243 2 242 3 3 33 3 32
-245 0 -246 0 0 225 0 225 -495 0 -495 0 0 -475z"/>
<path d="M14140 17135 l0 -475 615 0 615 0 0 475 0 475 -615 0 -615 0 0 -475z"/>
<path d="M17590 17135 l0 -475 495 0 495 0 0 230 0 230 245 0 245 0 0 238 0
239 -367 6 c-203 4 -536 7 -740 7 l-373 0 0 -475z"/>
<path d="M19217 17604 c-4 -4 -7 -218 -7 -476 l0 -468 35 0 35 0 -2 473 -3
472 -25 3 c-14 2 -29 0 -33 -4z"/>
<path d="M19347 17604 c-4 -4 -7 -218 -7 -476 l0 -469 33 3 32 3 3 213 2 212
75 0 75 0 0 -215 0 -215 495 0 495 0 0 475 0 475 -495 0 -495 0 0 -225 0 -225
-75 0 -75 0 -2 223 -3 222 -25 3 c-14 2 -29 0 -33 -4z"/>
<path d="M23500 17190 l0 -30 140 0 140 0 0 -250 0 -250 30 0 30 0 0 280 0
280 -170 0 -170 0 0 -30z"/>
<path d="M22510 16895 l0 -235 500 0 500 0 0 185 0 185 70 0 70 0 0 -186 0
-185 33 3 32 3 0 210 0 210 -102 3 c-95 2 -103 4 -103 22 0 20 -10 20 -500 20
l-500 0 0 -235z"/>
<path d="M23990 16895 l0 -235 495 0 495 0 0 235 0 235 -495 0 -495 0 0 -235z"/>
<path d="M7238 16393 l-3 -228 -168 -3 -167 -2 2 -243 3 -242 27 -3 28 -3 2
218 3 218 33 3 32 3 0 -220 0 -221 30 0 30 0 2 218 3 217 70 0 70 0 3 -217 2
-218 495 0 495 0 0 220 0 220 245 0 245 0 0 25 0 25 -242 2 -243 3 -3 228 -2
227 -495 0 -495 0 -2 -227z"/>
<path d="M9210 16375 l0 -245 245 0 245 0 0 -230 0 -230 495 0 495 0 0 475 0
475 -740 0 -740 0 0 -245z"/>
<path d="M11920 16145 l0 -475 620 0 620 0 0 475 0 475 -620 0 -620 0 0 -475z"/>
<path d="M14390 16145 l0 -475 615 0 615 0 0 475 0 475 -615 0 -615 0 0 -475z"/>
<path d="M17340 16145 l0 -475 620 0 620 0 0 475 0 475 -620 0 -620 0 0 -475z"/>
<path d="M19560 16145 l0 -475 740 0 740 0 0 235 0 235 -245 0 -245 0 0 240 0
240 -495 0 -495 0 0 -475z"/>
<path d="M22020 16145 l0 -475 620 0 620 0 0 475 0 475 -620 0 -620 0 0 -475z"/>
<path d="M24140 16146 l0 -476 35 0 35 0 -2 473 -3 472 -32 3 -33 3 0 -475z"/>
<path d="M24270 16145 l0 -476 33 3 32 3 3 213 2 212 70 0 70 0 0 -215 0 -215
500 0 500 0 0 475 0 475 -500 0 -500 0 0 -225 0 -225 -70 0 -70 0 -2 223 -3
222 -32 3 -33 3 0 -476z"/>
<path d="M28430 16200 l0 -30 385 0 385 0 0 -250 0 -250 30 0 30 0 0 280 0
280 -415 0 -415 0 0 -30z"/>
<path d="M26957 16133 c-4 -3 -7 -109 -7 -235 l0 -228 740 0 740 0 0 185 0
185 320 0 320 0 0 -186 0 -185 33 3 32 3 0 210 0 210 -352 3 c-345 2 -353 3
-353 22 0 20 -8 20 -733 20 -404 0 -737 -3 -740 -7z"/>
<path d="M29410 15905 l0 -235 250 0 250 0 0 235 0 235 -250 0 -250 0 0 -235z"/>
<path d="M5760 15403 l0 -223 -75 0 -75 0 0 220 0 220 -30 0 -30 0 0 -220 0
-220 -35 0 -35 0 0 220 0 220 -30 0 -30 0 2 -252 3 -253 168 -3 c142 -2 168 0
173 13 5 13 92 15 745 15 l739 0 -2 243 -3 242 -742 1 -743 1 0 -224z"/>
<path d="M9700 15155 l0 -475 620 0 620 0 -2 473 -3 472 -617 3 -618 2 0 -475z"/>
<path d="M11670 15155 l0 -475 620 0 620 0 -2 473 -3 472 -617 3 -618 2 0
-475z"/>
<path d="M14630 15155 l0 -475 495 0 495 0 -2 473 -3 472 -492 3 -493 2 0
-475z"/>
<path d="M17090 15155 l0 -475 620 0 620 0 -2 473 -3 472 -617 3 -618 2 0
-475z"/>
<path d="M19717 15624 c-4 -4 -7 -218 -7 -476 l0 -468 35 0 35 0 -2 473 -3
472 -25 3 c-14 2 -29 0 -33 -4z"/>
<path d="M19847 15624 c-4 -4 -7 -218 -7 -476 l0 -469 33 3 32 3 3 213 2 212
70 0 70 0 0 -215 0 -215 495 0 495 0 0 475 0 475 -495 0 -495 0 0 -225 0 -225
-70 0 -70 0 -2 223 -3 222 -25 3 c-14 2 -29 0 -33 -4z"/>
<path d="M21780 15155 l0 -475 615 0 615 0 0 475 0 475 -615 0 -615 0 0 -475z"/>
<path d="M24480 15385 l0 -245 250 0 250 0 0 -230 0 -230 1235 0 1235 0 0 230
0 230 245 0 245 0 -2 243 -3 242 -742 3 -743 2 0 -240 0 -240 -240 0 -240 0 0
240 0 240 -745 0 -745 0 0 -245z"/>
<path d="M7392 15368 l3 -253 170 0 170 0 3 33 3 32 -80 0 -81 0 0 220 0 220
-30 0 -30 0 0 -220 0 -220 -35 0 -35 0 0 220 0 220 -30 0 -30 0 2 -252z"/>
<path d="M29900 15145 l0 -25 250 0 250 0 0 25 0 25 -250 0 -250 0 0 -25z"/>
<path d="M10190 14395 l0 -245 250 0 250 0 0 -230 0 -230 740 0 740 0 0 230 0
230 250 0 250 0 0 245 0 245 -1240 0 -1240 0 0 -245z"/>
<path d="M14630 14165 l0 -475 615 0 615 0 0 475 0 475 -615 0 -615 0 0 -475z"/>
<path d="M17090 14165 l0 -475 500 0 500 0 -2 473 -3 472 -497 2 -498 3 0
-475z"/>
<path d="M20205 14628 c-3 -7 -4 -124 -3 -258 l3 -245 168 -3 167 -2 0 -215 0
-215 745 0 745 0 0 230 0 230 240 0 c153 0 240 -4 240 -10 0 -6 90 -10 250
-10 l250 0 0 25 0 25 -245 0 -245 0 0 230 0 230 -990 0 -990 0 0 -225 0 -225
-70 0 -70 0 -2 223 -3 222 -30 0 -30 0 -3 -222 -2 -223 -30 0 -30 0 -2 223 -3
222 -28 3 c-16 2 -29 -2 -32 -10z"/>
<path d="M14880 13175 l0 -475 125 0 125 0 0 475 0 475 -125 0 -125 0 0 -475z"/>
<path d="M17090 13175 l0 -475 125 0 125 0 0 475 0 475 -125 0 -125 0 0 -475z"/>
<path d="M15292 13448 c-18 -6 -48 -28 -67 -50 -29 -32 -35 -46 -35 -84 0 -90
43 -130 170 -159 41 -9 85 -23 98 -31 79 -52 -68 -125 -158 -79 -16 9 -37 29
-45 45 -11 20 -23 30 -39 30 -37 0 -47 -22 -44 -91 3 -70 22 -94 57 -72 14 9
27 8 57 -2 88 -32 199 -10 253 48 31 34 39 103 17 144 -24 48 -61 70 -144 89
-121 26 -149 46 -129 90 19 43 102 58 146 28 13 -9 29 -32 37 -50 10 -25 21
-34 37 -34 37 0 47 19 47 92 0 57 -3 69 -20 78 -13 7 -26 8 -37 1 -11 -6 -24
-6 -35 0 -27 15 -130 19 -166 7z"/>
<path d="M15658 13439 c-23 -13 -24 -65 -2 -73 9 -3 31 -6 50 -6 l34 0 0 -160
0 -160 -38 0 c-43 0 -62 -14 -62 -45 0 -42 13 -45 237 -45 l213 0 0 91 c0 102
-10 129 -45 129 -31 0 -45 -26 -45 -84 l0 -46 -85 0 -85 0 0 160 0 160 38 0
c44 0 62 14 62 47 0 16 -8 27 -26 33 -33 13 -224 12 -246 -1z"/>
<path d="M16142 13439 c-31 -12 -27 -60 6 -74 21 -9 22 -14 22 -150 0 -162 9
-190 78 -239 69 -49 171 -46 238 6 51 40 64 88 64 238 0 131 1 136 23 145 28
13 35 54 11 72 -21 15 -141 18 -178 3 -18 -6 -26 -17 -26 -33 0 -31 18 -47 52
-47 l28 0 0 -139 0 -139 -31 -26 c-21 -18 -42 -26 -69 -26 -27 0 -48 8 -69 26
l-31 26 0 139 0 139 28 0 c15 0 33 5 40 12 18 18 14 56 -7 68 -24 12 -147 12
-179 -1z"/>
<path d="M16633 13440 c-43 -17 -24 -80 24 -80 l23 0 0 -158 0 -158 -32 -9
c-24 -7 -34 -17 -36 -34 -7 -47 14 -51 240 -51 l208 0 0 84 c0 92 -11 113 -54
102 -24 -6 -36 -30 -36 -73 0 -22 -3 -23 -100 -23 l-100 0 0 60 c0 60 0 60 30
60 23 0 31 -5 36 -25 8 -33 37 -49 64 -35 17 9 20 21 20 90 0 98 -4 110 -42
110 -23 0 -31 -6 -39 -30 -9 -24 -17 -30 -40 -30 -29 0 -29 0 -29 60 l0 61 93
-3 92 -3 5 -39 c6 -45 31 -67 58 -50 14 9 18 28 20 98 l3 86 -193 -1 c-106 0
-203 -4 -215 -9z"/>
<path d="M15320 12435 l0 -225 -80 0 -80 0 0 220 0 220 -30 0 -30 0 0 -220 0
-220 -35 0 -35 0 0 220 0 220 -30 0 -30 0 2 -252 3 -253 168 -3 c142 -2 168 0
173 13 5 13 118 15 990 15 l984 0 -2 243 -3 242 -982 3 -983 2 0 -225z"/>
<path d="M10200 11849 c-725 -33 -1267 -286 -1556 -725 -107 -163 -177 -326
-216 -507 -18 -83 -22 -135 -22 -277 0 -103 5 -206 13 -250 55 -312 181 -550
416 -786 169 -170 333 -273 615 -388 246 -99 377 -138 985 -295 577 -149 704
-192 857 -294 99 -67 153 -126 193 -215 73 -160 55 -367 -46 -539 -43 -72
-166 -197 -244 -248 -192 -126 -462 -184 -795 -172 -299 11 -505 77 -699 225
-197 150 -346 423 -411 755 -6 31 -17 57 -23 57 -16 0 -1062 -102 -1063 -104
-5 -4 38 -251 56 -330 162 -697 560 -1167 1170 -1384 306 -109 616 -155 1045
-154 432 1 749 47 1051 153 429 150 743 419 933 796 127 254 174 458 173 753
-1 515 -167 903 -511 1197 -281 240 -643 387 -1451 588 -862 214 -1099 328
-1189 570 -26 70 -28 190 -4 261 61 183 260 313 575 376 148 29 480 32 623 6
295 -55 467 -173 584 -398 40 -77 95 -241 107 -318 4 -23 9 -44 13 -46 3 -2
238 7 521 20 283 13 530 23 548 24 l34 0 -7 88 c-30 400 -172 736 -423 1003
-281 298 -638 462 -1167 533 -99 14 -182 19 -440 30 -44 1 -154 -1 -245 -5z"/>
<path d="M18193 10063 c3 -1099 9 -1753 16 -1853 55 -767 131 -1013 420 -1364
217 -263 594 -480 966 -555 410 -83 1013 -96 1425 -30 534 85 957 331 1205
700 159 237 241 507 280 914 31 328 35 606 35 2238 l0 1647 -550 0 -550 0 0
-1607 c0 -1902 -10 -2208 -71 -2411 -74 -243 -258 -429 -504 -511 -233 -78
-552 -90 -816 -31 -203 45 -343 124 -485 271 -120 125 -198 285 -229 467 -30
178 -35 473 -35 2145 l0 1677 -556 0 -556 0 5 -1697z"/>
<path d="M23690 9035 l0 -2725 2075 0 2075 0 0 460 0 460 -1520 0 -1520 0 0
740 0 740 1365 0 1365 0 0 460 0 460 -1365 0 -1365 0 0 605 0 605 1468 2 1467
3 3 458 2 457 -2025 0 -2025 0 0 -2725z"/>
<path d="M13580 9015 l0 -2705 1920 0 1920 0 0 460 0 460 -1365 0 -1365 0 -2
2243 -3 2242 -552 3 -553 2 0 -2705z"/>
</g>
</svg>
