<?xml version="1.0" standalone="no"?>
<!DOCTYPE svg PUBLIC "-//W3C//DTD SVG 20010904//EN"
 "http://www.w3.org/TR/2001/REC-SVG-20010904/DTD/svg10.dtd">
<svg version="1.0" xmlns="http://www.w3.org/2000/svg"
 width="400.000000pt" height="400.000000pt" viewBox="0 0 400.000000 400.000000"
 preserveAspectRatio="xMidYMid meet">

<g transform="translate(0.000000,400.000000) scale(0.100000,-0.100000)"
fill="#000000" stroke="none">
<path d="M1990 3370 c0 -147 4 -230 10 -230 6 0 10 83 10 230 0 147 -4 230
-10 230 -6 0 -10 -83 -10 -230z"/>
<path d="M1934 3340 c0 -113 2 -159 3 -102 2 56 2 148 0 205 -1 56 -3 10 -3
-103z"/>
<path d="M2064 3340 c0 -113 2 -159 3 -102 2 56 2 148 0 205 -1 56 -3 10 -3
-103z"/>
<path d="M1460 3315 c0 -110 4 -175 10 -175 6 0 10 65 10 175 0 110 -4 175
-10 175 -6 0 -10 -65 -10 -175z"/>
<path d="M1534 3315 c0 -99 2 -138 3 -87 2 51 2 132 0 180 -1 48 -3 6 -3 -93z"/>
<path d="M1590 3315 c0 -110 4 -175 10 -175 6 0 10 65 10 175 0 110 -4 175
-10 175 -6 0 -10 -65 -10 -175z"/>
<path d="M1860 3315 c0 -110 4 -175 10 -175 6 0 10 65 10 175 0 110 -4 175
-10 175 -6 0 -10 -65 -10 -175z"/>
<path d="M2120 3315 c0 -110 4 -175 10 -175 6 0 10 65 10 175 0 110 -4 175
-10 175 -6 0 -10 -65 -10 -175z"/>
<path d="M2394 3315 c0 -99 2 -138 3 -87 2 51 2 132 0 180 -1 48 -3 6 -3 -93z"/>
<path d="M2464 3315 c0 -99 2 -138 3 -87 2 51 2 132 0 180 -1 48 -3 6 -3 -93z"/>
<path d="M2520 3315 c0 -110 4 -175 10 -175 6 0 10 65 10 175 0 110 -4 175
-10 175 -6 0 -10 -65 -10 -175z"/>
<path d="M1797 3433 c-11 -11 -8 -293 3 -293 6 0 10 57 10 150 0 83 -1 150 -3
150 -2 0 -7 -3 -10 -7z"/>
<path d="M2190 3291 c0 -94 4 -151 10 -151 6 0 10 55 10 144 0 86 -4 147 -10
151 -6 4 -10 -47 -10 -144z"/>
<path d="M1330 3260 c0 -73 4 -120 10 -120 6 0 10 47 10 120 0 73 -4 120 -10
120 -6 0 -10 -47 -10 -120z"/>
<path d="M1404 3260 c0 -69 1 -97 3 -62 2 34 2 90 0 125 -2 34 -3 6 -3 -63z"/>
<path d="M1660 3260 c0 -73 4 -120 10 -120 6 0 10 47 10 120 0 73 -4 120 -10
120 -6 0 -10 -47 -10 -120z"/>
<path d="M1734 3260 c0 -69 1 -97 3 -62 2 34 2 90 0 125 -2 34 -3 6 -3 -63z"/>
<path d="M2264 3260 c0 -69 1 -97 3 -62 2 34 2 90 0 125 -2 34 -3 6 -3 -63z"/>
<path d="M2320 3260 c0 -73 4 -120 10 -120 6 0 10 47 10 120 0 73 -4 120 -10
120 -6 0 -10 -47 -10 -120z"/>
<path d="M2594 3260 c0 -69 1 -97 3 -62 2 34 2 90 0 125 -2 34 -3 6 -3 -63z"/>
<path d="M2650 3260 c0 -73 4 -120 10 -120 6 0 10 47 10 120 0 73 -4 120 -10
120 -6 0 -10 -47 -10 -120z"/>
<path d="M1330 2531 c0 -241 4 -371 10 -371 6 0 10 128 10 364 0 233 -4 367
-10 371 -7 4 -10 -120 -10 -364z"/>
<path d="M1405 2530 c0 -206 1 -291 2 -188 2 104 2 272 0 376 -1 103 -2 18 -2
-188z"/>
<path d="M1467 2893 c-12 -11 -8 -733 3 -733 6 0 10 130 10 370 0 204 -1 370
-3 370 -2 0 -7 -3 -10 -7z"/>
<path d="M1535 2530 c0 -206 1 -291 2 -188 2 104 2 272 0 376 -1 103 -2 18 -2
-188z"/>
<path d="M1597 2893 c-12 -11 -8 -733 3 -733 6 0 10 130 10 370 0 204 -1 370
-3 370 -2 0 -7 -3 -10 -7z"/>
<path d="M1660 2530 c0 -240 4 -370 10 -370 6 0 10 130 10 370 0 240 -4 370
-10 370 -6 0 -10 -130 -10 -370z"/>
<path d="M1735 2530 c0 -206 1 -291 2 -188 2 104 2 272 0 376 -1 103 -2 18 -2
-188z"/>
<path d="M1797 2893 c-12 -11 -8 -733 3 -733 6 0 10 130 10 370 0 204 -1 370
-3 370 -2 0 -7 -3 -10 -7z"/>
<path d="M1860 2531 c0 -241 4 -371 10 -371 6 0 10 128 10 364 0 233 -4 367
-10 371 -7 4 -10 -120 -10 -364z"/>
<path d="M2127 2893 c-12 -11 -8 -733 3 -733 6 0 10 130 10 370 0 204 -1 370
-3 370 -2 0 -7 -3 -10 -7z"/>
<path d="M2190 2531 c0 -241 4 -371 10 -371 6 0 10 128 10 364 0 233 -4 367
-10 371 -7 4 -10 -120 -10 -364z"/>
<path d="M2265 2530 c0 -206 1 -291 2 -188 2 104 2 272 0 376 -1 103 -2 18 -2
-188z"/>
<path d="M2320 2531 c0 -241 4 -371 10 -371 6 0 10 128 10 364 0 233 -4 367
-10 371 -7 4 -10 -120 -10 -364z"/>
<path d="M2395 2530 c0 -206 1 -291 2 -188 2 104 2 272 0 376 -1 103 -2 18 -2
-188z"/>
<path d="M2458 2893 c-2 -5 -1 -172 2 -373 l5 -365 3 373 c1 204 0 372 -2 372
-3 0 -6 -3 -8 -7z"/>
<path d="M2520 2531 c0 -241 4 -371 10 -371 6 0 10 128 10 364 0 233 -4 367
-10 371 -7 4 -10 -120 -10 -364z"/>
<path d="M2595 2530 c0 -206 1 -291 2 -188 2 104 2 272 0 376 -1 103 -2 18 -2
-188z"/>
<path d="M2657 2893 c-12 -11 -8 -733 3 -733 6 0 10 130 10 370 0 204 -1 370
-3 370 -2 0 -7 -3 -10 -7z"/>
<path d="M670 1840 c-97 -45 -160 -140 -160 -240 1 -108 47 -163 246 -293 56
-37 109 -78 118 -93 59 -90 -8 -188 -129 -188 -88 0 -170 59 -203 146 -9 25
-21 46 -27 47 -6 0 -11 -46 -13 -119 -2 -109 5 -147 22 -105 7 19 48 19 128
-1 171 -44 341 29 378 162 14 51 8 129 -14 171 -23 46 -85 101 -196 175 -126
84 -158 112 -177 157 -19 45 -9 84 33 121 69 60 188 32 244 -57 17 -26 32 -55
36 -65 14 -46 24 -9 24 92 0 107 -4 122 -27 99 -7 -7 -28 -9 -55 -5 -132 18
-182 17 -228 -4z"/>
<path d="M1025 1840 c3 -5 15 -10 25 -10 32 0 50 -11 65 -41 20 -38 22 -700 2
-739 -9 -18 -25 -28 -55 -34 -23 -6 -42 -13 -42 -18 0 -4 92 -8 205 -8 130 0
205 4 205 10 0 6 -11 10 -24 10 -14 0 -38 11 -53 24 l-28 24 -3 159 -3 159
108 0 c155 2 227 32 284 122 57 90 31 240 -52 301 -63 47 -95 51 -376 51 -174
0 -262 -3 -258 -10z m445 -58 c22 -11 44 -36 58 -63 20 -37 23 -55 19 -116 -7
-122 -66 -183 -176 -183 l-51 0 0 190 0 190 58 0 c36 0 70 -7 92 -18z"/>
<path d="M1754 1841 c3 -4 19 -11 36 -14 17 -4 49 -24 72 -46 l42 -39 -28
-268 c-15 -148 -32 -295 -38 -327 -14 -73 -43 -119 -86 -131 -64 -18 -29 -26
118 -26 142 0 191 10 117 24 -44 8 -75 42 -82 91 -6 34 31 534 39 543 2 1 30
-59 63 -135 33 -76 97 -225 143 -331 46 -105 89 -192 96 -192 6 0 14 8 17 18
9 29 254 629 266 648 8 14 10 15 11 4 0 -8 9 -121 20 -250 30 -359 28 -382
-45 -396 -100 -18 7 -24 475 -24 l509 0 5 33 c3 17 10 62 16 98 5 36 10 71 10
77 0 24 -17 11 -33 -27 -44 -98 -98 -131 -217 -131 -45 0 -90 4 -100 10 -35
19 -40 63 -40 387 0 348 4 377 57 388 15 4 35 10 43 13 18 8 -160 14 -303 10
-100 -3 -101 -3 -60 -16 74 -22 74 -21 71 -428 l-3 -356 -25 -20 c-42 -34
-111 -13 -131 40 -14 35 -67 643 -62 702 3 30 37 60 69 60 12 0 26 5 29 10 4
6 -44 10 -137 10 l-143 0 -114 -281 c-69 -169 -117 -275 -121 -267 -4 7 -61
133 -125 281 l-118 267 -159 0 c-88 0 -157 -4 -154 -9z"/>
</g>
</svg>
